<?xml version="1.0" encoding="UTF-8" standalone="no"?>
<!-- Created with Inkscape (http://www.inkscape.org/) -->

<svg
   width="1000"
   height="1000"
   viewBox="0 0 264.58333 264.58333"
   version="1.1"
   id="svg1"
   xml:space="preserve"
   inkscape:version="1.3.2 (091e20e, 2023-11-25, custom)"
   sodipodi:docname="icon-only-v2.svg"
   xmlns:inkscape="http://www.inkscape.org/namespaces/inkscape"
   xmlns:sodipodi="http://sodipodi.sourceforge.net/DTD/sodipodi-0.dtd"
   xmlns="http://www.w3.org/2000/svg"
   xmlns:svg="http://www.w3.org/2000/svg"><sodipodi:namedview
     id="namedview1"
     pagecolor="#ffffff"
     bordercolor="#000000"
     borderopacity="0.25"
     inkscape:showpageshadow="2"
     inkscape:pageopacity="0.0"
     inkscape:pagecheckerboard="0"
     inkscape:deskcolor="#d1d1d1"
     inkscape:document-units="mm"
     inkscape:zoom="0.72426347"
     inkscape:cx="395.57428"
     inkscape:cy="450.8028"
     inkscape:window-width="1920"
     inkscape:window-height="1009"
     inkscape:window-x="-8"
     inkscape:window-y="-8"
     inkscape:window-maximized="1"
     inkscape:current-layer="layer1" /><defs
     id="defs1" /><g
     inkscape:label="Layer 1"
     inkscape:groupmode="layer"
     id="layer1"><g
       id="g1"
       transform="matrix(0.69904858,0.88669243,-0.88669243,0.69904858,157.1154,-77.488651)"><path
         sodipodi:type="star"
         style="fill:#a1d4ff;fill-opacity:1;stroke:none;stroke-width:2.64583;stroke-linecap:square;stroke-linejoin:round;stroke-miterlimit:0;stroke-opacity:1"
         id="path3-6-8"
         inkscape:flatsided="false"
         sodipodi:sides="4"
         sodipodi:cx="77.446487"
         sodipodi:cy="108.13284"
         sodipodi:r1="63.31319"
         sodipodi:r2="15.828297"
         sodipodi:arg1="0.81396182"
         sodipodi:arg2="1.59936"
         inkscape:rounded="0.47"
         inkscape:randomized="0"
         d="M 120.91881,154.16237 C 102.70331,171.36589 102.03947,124.67026 76.994435,123.95468 51.9494,123.23911 48.620493,169.82067 31.416965,151.60517 14.213438,133.38967 60.909075,132.72582 61.624647,107.68079 62.34022,82.635756 15.758661,79.306848 33.974161,62.103321 c 18.2155,-17.203528 18.879345,29.49211 43.924379,30.207682 25.04503,0.715572 28.37394,-45.865987 45.57747,-27.650487 17.20353,18.215501 -29.49211,18.879345 -30.207682,43.924384 -0.715573,25.04503 45.865982,28.37394 27.650482,45.57747 z"
         transform="matrix(1.4323828,1.5212538,1.5212538,-1.4323828,-143.13885,169.36353)"
         inkscape:label="x3"
         inkscape:transform-center-y="-3.9049655e-06" /><path
         sodipodi:type="star"
         style="fill:#0593fc;fill-opacity:1;stroke:none;stroke-width:2.64583;stroke-linecap:square;stroke-linejoin:round;stroke-miterlimit:0;stroke-opacity:1"
         id="path3"
         inkscape:flatsided="false"
         sodipodi:sides="4"
         sodipodi:cx="77.446487"
         sodipodi:cy="108.13284"
         sodipodi:r1="63.31319"
         sodipodi:r2="15.828297"
         sodipodi:arg1="0.81396182"
         sodipodi:arg2="1.59936"
         inkscape:rounded="0.47"
         inkscape:randomized="0"
         d="M 120.91881,154.16237 C 102.70331,171.36589 102.03947,124.67026 76.994435,123.95468 51.9494,123.23911 48.620493,169.82067 31.416965,151.60517 14.213438,133.38967 60.909075,132.72582 61.624647,107.68079 62.34022,82.635756 15.758661,79.306848 33.974161,62.103321 c 18.2155,-17.203528 18.879345,29.49211 43.924379,30.207682 25.04503,0.715572 28.37394,-45.865987 45.57747,-27.650487 17.20353,18.215501 -29.49211,18.879345 -30.207682,43.924384 -0.715573,25.04503 45.865982,28.37394 27.650482,45.57747 z"
         inkscape:transform-center-y="3.3642742e-06"
         transform="matrix(1.5906644,-1.3548876,1.3548876,1.5906644,-137.40756,65.219894)"
         inkscape:label="x1"
         inkscape:transform-center-x="7.595436e-06" /></g></g></svg>
